<svg width="181" height="181" xmlns="http://www.w3.org/2000/svg" xmlns:xlink="http://www.w3.org/1999/xlink" xml:space="preserve" overflow="hidden"><defs><clipPath id="clip0"><rect x="530" y="270" width="180" height="180"/></clipPath><clipPath id="clip1"><rect x="530" y="270" width="180" height="180"/></clipPath><clipPath id="clip2"><rect x="530" y="270" width="180" height="180"/></clipPath></defs><g transform="translate(-529 -269)"><g><g clip-path="url(#clip0)"><g clip-path="url(#clip1)"><g clip-path="url(#clip2)"><path d="M99.4475 131.173C99.4475 124.088 105.193 118.343 112.278 118.343L265.622 118.343C272.708 118.343 278.453 124.088 278.453 131.173L278.453 285.512C278.453 292.597 272.708 298.343 265.622 298.343L112.278 298.343C105.193 298.343 99.4475 292.597 99.4475 285.512Z" fill="#FFFFFF" fill-rule="evenodd" fill-opacity="1" transform="matrix(1.00556 0 0 1 430 151.657)"/><path d="M111.381 208.343C111.381 165.777 146.11 131.271 188.95 131.271 231.79 131.271 266.519 165.777 266.519 208.343 266.519 250.908 231.79 285.414 188.95 285.414 146.11 285.414 111.381 250.908 111.381 208.343ZM149.917 208.343C149.917 229.625 167.393 246.878 188.95 246.878 210.508 246.878 227.983 229.625 227.983 208.343 227.983 187.06 210.508 169.807 188.95 169.807 167.393 169.807 149.917 187.06 149.917 208.343Z" fill="#232F3E" fill-rule="evenodd" fill-opacity="1" transform="matrix(1.00556 0 0 1 430 151.657)"/><path d="M223.757 281.436C202.337 281.436 184.972 264.072 184.972 242.652 184.972 229.724 184.972 216.796 184.972 203.867 197.901 203.867 210.829 203.867 223.757 203.867 245.177 203.867 262.541 221.232 262.541 242.652 262.541 264.072 245.177 281.436 223.757 281.436Z" stroke="#FFFFFF" stroke-width="9.94475" stroke-linecap="butt" stroke-linejoin="round" stroke-miterlimit="10" stroke-opacity="1" fill="#232F3E" fill-rule="evenodd" fill-opacity="1" transform="matrix(1.00556 0 0 1 430 151.657)"/></g></g></g></g></g></svg>